{
	"asset":{
		"generator":"Khronos glTF Blender I/O v4.1.63",
		"version":"2.0"
	},
	"extensionsUsed":[
		"KHR_materials_emissive_strength"
	],
	"scene":0,
	"scenes":[
		{
			"name":"Scene",
			"nodes":[
				0,
				1,
				2
			]
		}
	],
	"nodes":[
		{
			"mesh":0,
			"name":"Ground.001",
			"translation":[
				0,
				-0.19412729144096375,
				0
			]
		},
		{
			"mesh":1,
			"name":"OneBLOCK.003",
			"translation":[
				-2.0500001907348633,
				-0.13415801525115967,
				0
			]
		},
		{
			"mesh":2,
			"name":"Ground.003",
			"translation":[
				0,
				-0.19412729144096375,
				0
			]
		}
	],
	"materials":[
		{
			"doubleSided":true,
			"emissiveFactor":[
				0.04479309983243196,
				0.10000000149011612,
				0.08899539841704662
			],
			"name":"GroundV2",
			"pbrMetallicRoughness":{
				"baseColorFactor":[
					0,
					0,
					0,
					1
				]
			}
		},
		{
			"doubleSided":true,
			"emissiveFactor":[
				1,
				1,
				1
			],
			"emissiveTexture":{
				"index":0
			},
			"extensions":{
				"KHR_materials_emissive_strength":{
					"emissiveStrength":11
				}
			},
			"name":"Edges_UV_TEXTURE",
			"pbrMetallicRoughness":{
				"baseColorTexture":{
					"index":1
				},
				"metallicFactor":0,
				"roughnessFactor":0.5
			}
		}
	],
	"meshes":[
		{
			"name":"Plane.012",
			"primitives":[
				{
					"attributes":{
						"POSITION":0,
						"NORMAL":1,
						"TEXCOORD_0":2
					},
					"indices":3,
					"material":0
				}
			]
		},
		{
			"name":"Plane.016",
			"primitives":[
				{
					"attributes":{
						"POSITION":4,
						"NORMAL":5,
						"TEXCOORD_0":6
					},
					"indices":7,
					"material":1
				}
			]
		},
		{
			"name":"Plane.017",
			"primitives":[
				{
					"attributes":{
						"POSITION":8,
						"NORMAL":9,
						"TEXCOORD_0":10,
						"TANGENT":11
					},
					"indices":12,
					"material":0
				}
			]
		}
	],
	"textures":[
		{
			"sampler":0,
			"source":0
		},
		{
			"sampler":0,
			"source":0
		}
	],
	"images":[
		{
			"mimeType":"image/png",
			"name":"Edge_square",
			"uri":"T_EXP/Edge_square.png"
		}
	],
	"accessors":[
		{
			"bufferView":0,
			"componentType":5126,
			"count":16232,
			"max":[
				900,
				0.10000000149011612,
				860
			],
			"min":[
				-860,
				-0.10000000149011612,
				-900
			],
			"type":"VEC3"
		},
		{
			"bufferView":1,
			"componentType":5126,
			"count":16232,
			"type":"VEC3"
		},
		{
			"bufferView":2,
			"componentType":5126,
			"count":16232,
			"type":"VEC2"
		},
		{
			"bufferView":3,
			"componentType":5123,
			"count":24372,
			"type":"SCALAR"
		},
		{
			"bufferView":4,
			"componentType":5126,
			"count":55296,
			"max":[
				851.3643798828125,
				0.03500000014901161,
				397.29998779296875
			],
			"min":[
				-814.8998413085938,
				-0.03500000014901161,
				-432.8887939453125
			],
			"type":"VEC3"
		},
		{
			"bufferView":5,
			"componentType":5126,
			"count":55296,
			"type":"VEC3"
		},
		{
			"bufferView":6,
			"componentType":5126,
			"count":55296,
			"type":"VEC2"
		},
		{
			"bufferView":7,
			"componentType":5123,
			"count":317952,
			"type":"SCALAR"
		},
		{
			"bufferView":8,
			"componentType":5126,
			"count":46464,
			"max":[
				900,
				0.10000000149011612,
				860
			],
			"min":[
				-860,
				-0.10000000149011612,
				-900
			],
			"type":"VEC3"
		},
		{
			"bufferView":9,
			"componentType":5126,
			"count":46464,
			"type":"VEC3"
		},
		{
			"bufferView":10,
			"componentType":5126,
			"count":46464,
			"type":"VEC2"
		},
		{
			"bufferView":11,
			"componentType":5126,
			"count":46464,
			"type":"VEC4"
		},
		{
			"bufferView":12,
			"componentType":5123,
			"count":69696,
			"type":"SCALAR"
		}
	],
	"bufferViews":[
		{
			"buffer":0,
			"byteLength":194784,
			"byteOffset":0,
			"target":34962
		},
		{
			"buffer":0,
			"byteLength":194784,
			"byteOffset":194784,
			"target":34962
		},
		{
			"buffer":0,
			"byteLength":129856,
			"byteOffset":389568,
			"target":34962
		},
		{
			"buffer":0,
			"byteLength":48744,
			"byteOffset":519424,
			"target":34963
		},
		{
			"buffer":0,
			"byteLength":663552,
			"byteOffset":568168,
			"target":34962
		},
		{
			"buffer":0,
			"byteLength":663552,
			"byteOffset":1231720,
			"target":34962
		},
		{
			"buffer":0,
			"byteLength":442368,
			"byteOffset":1895272,
			"target":34962
		},
		{
			"buffer":0,
			"byteLength":635904,
			"byteOffset":2337640,
			"target":34963
		},
		{
			"buffer":0,
			"byteLength":557568,
			"byteOffset":2973544,
			"target":34962
		},
		{
			"buffer":0,
			"byteLength":557568,
			"byteOffset":3531112,
			"target":34962
		},
		{
			"buffer":0,
			"byteLength":371712,
			"byteOffset":4088680,
			"target":34962
		},
		{
			"buffer":0,
			"byteLength":743424,
			"byteOffset":4460392,
			"target":34962
		},
		{
			"buffer":0,
			"byteLength":139392,
			"byteOffset":5203816,
			"target":34963
		}
	],
	"samplers":[
		{
			"magFilter":9729,
			"minFilter":9987
		}
	],
	"buffers":[
		{
			"byteLength":5343208,
			"uri":"Arena_V1_Baked.bin"
		}
	]
}
