{
	"asset":{
		"copyright":"https://blendswap.com/blend/4098",
		"generator":"Khronos glTF Blender I/O v4.2.60",
		"version":"2.0"
	},
	"scene":0,
	"scenes":[
		{
			"name":"Scene",
			"nodes":[
				0
			]
		}
	],
	"nodes":[
		{
			"mesh":0,
			"name":"Circle.008"
		}
	],
	"materials":[
		{
			"doubleSided":true,
			"name":"light",
			"pbrMetallicRoughness":{
				"baseColorFactor":[
					0.013700971379876137,
					0.5520117878913879,
					0.9046614766120911,
					1
				],
				"metallicFactor":0,
				"roughnessFactor":0.5
			}
		},
		{
			"doubleSided":true,
			"name":"gloss",
			"pbrMetallicRoughness":{
				"baseColorFactor":[
					0.14456269145011902,
					0.14456269145011902,
					0.14456269145011902,
					1
				],
				"metallicFactor":0,
				"roughnessFactor":0.5
			}
		},
		{
			"doubleSided":true,
			"name":"gloss.001",
			"pbrMetallicRoughness":{
				"baseColorFactor":[
					0.309249609708786,
					0.309249609708786,
					0.309249609708786,
					1
				],
				"metallicFactor":0,
				"roughnessFactor":0.5
			}
		},
		{
			"doubleSided":true,
			"name":"styeel",
			"pbrMetallicRoughness":{
				"baseColorFactor":[
					0.7921630144119263,
					0.7921630144119263,
					0.7921630144119263,
					1
				],
				"metallicFactor":0,
				"roughnessFactor":0.5
			}
		},
		{
			"doubleSided":true,
			"name":"wheel",
			"pbrMetallicRoughness":{
				"baseColorFactor":[
					0.0435100719332695,
					0.0435100719332695,
					0.0435100719332695,
					1
				],
				"metallicFactor":0,
				"roughnessFactor":0.5
			}
		}
	],
	"meshes":[
		{
			"name":"Circle.012",
			"primitives":[
				{
					"attributes":{
						"POSITION":0,
						"NORMAL":1,
						"TEXCOORD_0":2,
						"TANGENT":3
					},
					"indices":4,
					"material":0
				},
				{
					"attributes":{
						"POSITION":5,
						"NORMAL":6,
						"TEXCOORD_0":7,
						"TANGENT":8
					},
					"indices":9,
					"material":1
				},
				{
					"attributes":{
						"POSITION":10,
						"NORMAL":11,
						"TEXCOORD_0":12,
						"TANGENT":13
					},
					"indices":14,
					"material":2
				},
				{
					"attributes":{
						"POSITION":15,
						"NORMAL":16,
						"TEXCOORD_0":17,
						"TANGENT":18
					},
					"indices":19,
					"material":3
				},
				{
					"attributes":{
						"POSITION":20,
						"NORMAL":21,
						"TEXCOORD_0":22,
						"TANGENT":23
					},
					"indices":24,
					"material":4
				}
			]
		}
	],
	"accessors":[
		{
			"bufferView":0,
			"componentType":5126,
			"count":3224,
			"max":[
				1.437207818031311,
				4.065858840942383,
				4.142379283905029
			],
			"min":[
				-1.385702133178711,
				0.25815844535827637,
				-5.474501132965088
			],
			"type":"VEC3"
		},
		{
			"bufferView":1,
			"componentType":5126,
			"count":3224,
			"type":"VEC3"
		},
		{
			"bufferView":2,
			"componentType":5126,
			"count":3224,
			"type":"VEC2"
		},
		{
			"bufferView":3,
			"componentType":5126,
			"count":3224,
			"type":"VEC4"
		},
		{
			"bufferView":4,
			"componentType":5123,
			"count":5676,
			"type":"SCALAR"
		},
		{
			"bufferView":5,
			"componentType":5126,
			"count":9042,
			"max":[
				1.2999123334884644,
				4.061474800109863,
				4.118566513061523
			],
			"min":[
				-1.2770605087280273,
				0.26304054260253906,
				-5.893805980682373
			],
			"type":"VEC3"
		},
		{
			"bufferView":6,
			"componentType":5126,
			"count":9042,
			"type":"VEC3"
		},
		{
			"bufferView":7,
			"componentType":5126,
			"count":9042,
			"type":"VEC2"
		},
		{
			"bufferView":8,
			"componentType":5126,
			"count":9042,
			"type":"VEC4"
		},
		{
			"bufferView":9,
			"componentType":5123,
			"count":14262,
			"type":"SCALAR"
		},
		{
			"bufferView":10,
			"componentType":5126,
			"count":3704,
			"max":[
				1.9500116109848022,
				4.715691566467285,
				1.9535040855407715
			],
			"min":[
				-1.8466417789459229,
				1.1641085147857666,
				-3.395923614501953
			],
			"type":"VEC3"
		},
		{
			"bufferView":11,
			"componentType":5126,
			"count":3704,
			"type":"VEC3"
		},
		{
			"bufferView":12,
			"componentType":5126,
			"count":3704,
			"type":"VEC2"
		},
		{
			"bufferView":13,
			"componentType":5126,
			"count":3704,
			"type":"VEC4"
		},
		{
			"bufferView":14,
			"componentType":5123,
			"count":15882,
			"type":"SCALAR"
		},
		{
			"bufferView":15,
			"componentType":5126,
			"count":3776,
			"max":[
				1.9774044752120972,
				2.7233123779296875,
				3.707975149154663
			],
			"min":[
				-1.928792953491211,
				0.5831782817840576,
				-5.332335948944092
			],
			"type":"VEC3"
		},
		{
			"bufferView":16,
			"componentType":5126,
			"count":3776,
			"type":"VEC3"
		},
		{
			"bufferView":17,
			"componentType":5126,
			"count":3776,
			"type":"VEC2"
		},
		{
			"bufferView":18,
			"componentType":5126,
			"count":3776,
			"type":"VEC4"
		},
		{
			"bufferView":19,
			"componentType":5123,
			"count":6588,
			"type":"SCALAR"
		},
		{
			"bufferView":20,
			"componentType":5126,
			"count":710,
			"max":[
				0.8841607570648193,
				3.173989772796631,
				4.155876159667969
			],
			"min":[
				-0.8712578415870667,
				0.1098473072052002,
				-5.802833080291748
			],
			"type":"VEC3"
		},
		{
			"bufferView":21,
			"componentType":5126,
			"count":710,
			"type":"VEC3"
		},
		{
			"bufferView":22,
			"componentType":5126,
			"count":710,
			"type":"VEC2"
		},
		{
			"bufferView":23,
			"componentType":5126,
			"count":710,
			"type":"VEC4"
		},
		{
			"bufferView":24,
			"componentType":5123,
			"count":1536,
			"type":"SCALAR"
		}
	],
	"bufferViews":[
		{
			"buffer":0,
			"byteLength":38688,
			"byteOffset":0,
			"target":34962
		},
		{
			"buffer":0,
			"byteLength":38688,
			"byteOffset":38688,
			"target":34962
		},
		{
			"buffer":0,
			"byteLength":25792,
			"byteOffset":77376,
			"target":34962
		},
		{
			"buffer":0,
			"byteLength":51584,
			"byteOffset":103168,
			"target":34962
		},
		{
			"buffer":0,
			"byteLength":11352,
			"byteOffset":154752,
			"target":34963
		},
		{
			"buffer":0,
			"byteLength":108504,
			"byteOffset":166104,
			"target":34962
		},
		{
			"buffer":0,
			"byteLength":108504,
			"byteOffset":274608,
			"target":34962
		},
		{
			"buffer":0,
			"byteLength":72336,
			"byteOffset":383112,
			"target":34962
		},
		{
			"buffer":0,
			"byteLength":144672,
			"byteOffset":455448,
			"target":34962
		},
		{
			"buffer":0,
			"byteLength":28524,
			"byteOffset":600120,
			"target":34963
		},
		{
			"buffer":0,
			"byteLength":44448,
			"byteOffset":628644,
			"target":34962
		},
		{
			"buffer":0,
			"byteLength":44448,
			"byteOffset":673092,
			"target":34962
		},
		{
			"buffer":0,
			"byteLength":29632,
			"byteOffset":717540,
			"target":34962
		},
		{
			"buffer":0,
			"byteLength":59264,
			"byteOffset":747172,
			"target":34962
		},
		{
			"buffer":0,
			"byteLength":31764,
			"byteOffset":806436,
			"target":34963
		},
		{
			"buffer":0,
			"byteLength":45312,
			"byteOffset":838200,
			"target":34962
		},
		{
			"buffer":0,
			"byteLength":45312,
			"byteOffset":883512,
			"target":34962
		},
		{
			"buffer":0,
			"byteLength":30208,
			"byteOffset":928824,
			"target":34962
		},
		{
			"buffer":0,
			"byteLength":60416,
			"byteOffset":959032,
			"target":34962
		},
		{
			"buffer":0,
			"byteLength":13176,
			"byteOffset":1019448,
			"target":34963
		},
		{
			"buffer":0,
			"byteLength":8520,
			"byteOffset":1032624,
			"target":34962
		},
		{
			"buffer":0,
			"byteLength":8520,
			"byteOffset":1041144,
			"target":34962
		},
		{
			"buffer":0,
			"byteLength":5680,
			"byteOffset":1049664,
			"target":34962
		},
		{
			"buffer":0,
			"byteLength":11360,
			"byteOffset":1055344,
			"target":34962
		},
		{
			"buffer":0,
			"byteLength":3072,
			"byteOffset":1066704,
			"target":34963
		}
	],
	"buffers":[
		{
			"byteLength":1069776,
			"uri":"cycle.bin"
		}
	]
}
