{
	"asset":{
		"generator":"Khronos glTF Blender I/O v4.2.60",
		"version":"2.0"
	},
	"scene":0,
	"scenes":[
		{
			"name":"Scene",
			"nodes":[
				0
			]
		}
	],
	"nodes":[
		{
			"mesh":0,
			"name":"Circle.008",
			"rotation":[
				0,
				0,
				-0.7071068286895752,
				0.7071068286895752
			],
			"scale":[
				0.5206522941589355,
				0.5206522345542908,
				0.5206522345542908
			]
		}
	],
	"materials":[
		{
			"doubleSided":true,
			"name":"light",
			"pbrMetallicRoughness":{
				"baseColorFactor":[
					1,
					0.8849776983261108,
					0,
					1
				],
				"metallicFactor":0,
				"roughnessFactor":0.5
			}
		},
		{
			"doubleSided":true,
			"name":"gloss",
			"pbrMetallicRoughness":{
				"baseColorFactor":[
					0.14456269145011902,
					0.14456269145011902,
					0.14456269145011902,
					1
				],
				"metallicFactor":0,
				"roughnessFactor":0.5
			}
		}
	],
	"meshes":[
		{
			"name":"Circle.012",
			"primitives":[
				{
					"attributes":{
						"POSITION":0,
						"NORMAL":1
					},
					"indices":2,
					"material":0
				},
				{
					"attributes":{
						"POSITION":3,
						"NORMAL":4
					},
					"indices":5,
					"material":1
				}
			]
		}
	],
	"accessors":[
		{
			"bufferView":0,
			"componentType":5126,
			"count":512,
			"max":[
				1,
				0.12649334967136383,
				1
			],
			"min":[
				-1,
				-0.12649334967136383,
				-1
			],
			"type":"VEC3"
		},
		{
			"bufferView":1,
			"componentType":5126,
			"count":512,
			"type":"VEC3"
		},
		{
			"bufferView":2,
			"componentType":5123,
			"count":1608,
			"type":"SCALAR"
		},
		{
			"bufferView":3,
			"componentType":5126,
			"count":432,
			"max":[
				0.9110568761825562,
				0.11975643783807755,
				0.9110568761825562
			],
			"min":[
				-0.9110568165779114,
				-0.11807221174240112,
				-0.9110568165779114
			],
			"type":"VEC3"
		},
		{
			"bufferView":4,
			"componentType":5126,
			"count":432,
			"type":"VEC3"
		},
		{
			"bufferView":5,
			"componentType":5123,
			"count":1416,
			"type":"SCALAR"
		}
	],
	"bufferViews":[
		{
			"buffer":0,
			"byteLength":6144,
			"byteOffset":0,
			"target":34962
		},
		{
			"buffer":0,
			"byteLength":6144,
			"byteOffset":6144,
			"target":34962
		},
		{
			"buffer":0,
			"byteLength":3216,
			"byteOffset":12288,
			"target":34963
		},
		{
			"buffer":0,
			"byteLength":5184,
			"byteOffset":15504,
			"target":34962
		},
		{
			"buffer":0,
			"byteLength":5184,
			"byteOffset":20688,
			"target":34962
		},
		{
			"buffer":0,
			"byteLength":2832,
			"byteOffset":25872,
			"target":34963
		}
	],
	"buffers":[
		{
			"byteLength":28704,
			"uri":"disc.bin"
		}
	]
}
