<?xml version="1.0" encoding="UTF-8" standalone="no"?>
<svg
   id="a"
   viewBox="0 0 610.67 100"
   version="1.1"
   sodipodi:docname="triplon-ii-t.svg"
   width="610.66998"
   height="100"
   inkscape:version="1.2.2 (b0a8486541, 2022-12-01)"
   xmlns:inkscape="http://www.inkscape.org/namespaces/inkscape"
   xmlns:sodipodi="http://sodipodi.sourceforge.net/DTD/sodipodi-0.dtd"
   xmlns="http://www.w3.org/2000/svg"
   xmlns:svg="http://www.w3.org/2000/svg">
  <sodipodi:namedview
     id="namedview63"
     pagecolor="#505050"
     bordercolor="#eeeeee"
     borderopacity="1"
     inkscape:showpageshadow="0"
     inkscape:pageopacity="0"
     inkscape:pagecheckerboard="0"
     inkscape:deskcolor="#505050"
     showgrid="false"
     inkscape:zoom="1.0061602"
     inkscape:cx="306.61122"
     inkscape:cy="122.74388"
     inkscape:window-width="1920"
     inkscape:window-height="995"
     inkscape:window-x="0"
     inkscape:window-y="0"
     inkscape:window-maximized="1"
     inkscape:current-layer="a" />
  <defs
     id="defs4">
    <style
       id="style2">.b{stroke:rgba(98,205,245,.78);stroke-width:6.68px;}.b,.c{stroke-miterlimit:5;}.c{stroke:rgba(255,255,255,.78);stroke-width:.64px;}</style>
  </defs>
  <g
     id="g374"
     transform="translate(0,-143.36)">
    <path
       class="b"
       d="m 459.16,172.24 c -12.38,0 -22.46,10.08 -22.46,22.46 0,12.38 10.08,22.46 22.46,22.46 12.38,0 22.46,-10.08 22.46,-22.46 0,-12.38 -10.08,-22.46 -22.46,-22.46 m 0,49.3 c -14.8,0 -26.84,-12.04 -26.84,-26.84 0,-14.8 12.04,-26.84 26.84,-26.84 14.8,0 26.84,12.04 26.84,26.84 0,14.8 -12.04,26.84 -26.84,26.84"
       id="path6" />
    <path
       class="b"
       d="m 459.34,153.25 c -22.76,0 -41.27,18.51 -41.27,41.27 0,22.76 18.51,41.27 41.27,41.27 22.76,0 41.27,-18.51 41.27,-41.27 0,-22.76 -18.51,-41.27 -41.27,-41.27 m 0,86.91 c -25.17,0 -45.65,-20.48 -45.65,-45.65 0,-25.17 20.48,-45.65 45.65,-45.65 25.17,0 45.65,20.48 45.65,45.65 0,25.17 -20.48,45.65 -45.65,45.65"
       id="path8" />
    <path
       class="c"
       d="m 459.16,172.24 c -12.38,0 -22.46,10.08 -22.46,22.46 0,12.38 10.08,22.46 22.46,22.46 12.38,0 22.46,-10.08 22.46,-22.46 0,-12.38 -10.08,-22.46 -22.46,-22.46 m 0,49.3 c -14.8,0 -26.84,-12.04 -26.84,-26.84 0,-14.8 12.04,-26.84 26.84,-26.84 14.8,0 26.84,12.04 26.84,26.84 0,14.8 -12.04,26.84 -26.84,26.84"
       id="path10" />
    <path
       class="c"
       d="m 459.34,153.25 c -22.76,0 -41.27,18.51 -41.27,41.27 0,22.76 18.51,41.27 41.27,41.27 22.76,0 41.27,-18.51 41.27,-41.27 0,-22.76 -18.51,-41.27 -41.27,-41.27 m 0,86.91 c -25.17,0 -45.65,-20.48 -45.65,-45.65 0,-25.17 20.48,-45.65 45.65,-45.65 25.17,0 45.65,20.48 45.65,45.65 0,25.17 -20.48,45.65 -45.65,45.65"
       id="path12" />
    <path
       class="b"
       d="m 594.67,235.23 h 7.53 c 0.34,0 0.72,0 0.75,-0.79 v -79.91 c 0,-0.27 0,-0.91 -0.55,-0.91 h -15.68 c -0.4,0 -1.07,0 -1.12,0.96 v 35.2 c 0,0 -19.51,0 -19.51,0 -0.67,0 -0.9,0.15 -0.94,0.61 v 9.01 c 0,0 29.52,35.85 29.52,35.85 z m 7.53,4.39 h -9.59 l -31.83,-38.65 v -10.62 c 0,-1.99 1.42,-4.95 5.32,-4.95 h 15.13 v -30.86 c 0,-2.13 1.46,-5.3 5.5,-5.3 h 15.68 c 1.98,0 4.93,1.41 4.93,5.3 v 79.96 c 0,2.06 -1.37,5.14 -5.14,5.14"
       id="path14" />
    <path
       class="c"
       d="m 594.67,235.23 h 7.53 c 0.34,0 0.72,0 0.75,-0.79 v -79.91 c 0,-0.27 0,-0.91 -0.55,-0.91 h -15.68 c -0.4,0 -1.07,0 -1.12,0.96 v 35.2 c 0,0 -19.51,0 -19.51,0 -0.67,0 -0.9,0.15 -0.94,0.61 v 9.01 c 0,0 29.52,35.85 29.52,35.85 z m 7.53,4.39 h -9.59 l -31.83,-38.65 v -10.62 c 0,-1.99 1.42,-4.95 5.32,-4.95 h 15.13 v -30.86 c 0,-2.13 1.46,-5.3 5.5,-5.3 h 15.68 c 1.98,0 4.93,1.41 4.93,5.3 v 79.96 c 0,2.06 -1.37,5.14 -5.14,5.14"
       id="path16" />
    <path
       class="b"
       d="m 515.97,153.61 c -0.34,0 -0.72,0 -0.75,0.79 v 79.91 c 0,0.27 0,0.91 0.55,0.91 h 15.68 c 0.4,0 1.07,0 1.12,-0.96 v -35.2 c 0,0 19.51,0 19.51,0 0.28,0 0.94,0 0.94,-0.57 v -9.05 L 523.5,153.59 c 0,0 -7.53,0 -7.53,0 z m 15.47,86.01 h -15.68 c -1.98,0 -4.93,-1.41 -4.93,-5.3 v -79.96 c 0,-2.06 1.37,-5.14 5.14,-5.14 h 9.59 l 31.83,38.66 v 10.62 c 0,1.99 -1.42,4.95 -5.32,4.95 h -15.13 v 30.86 c 0,2.13 -1.46,5.3 -5.5,5.3"
       id="path18" />
    <path
       class="c"
       d="m 515.97,153.61 c -0.34,0 -0.72,0 -0.75,0.79 v 79.91 c 0,0.27 0,0.91 0.55,0.91 h 15.68 c 0.4,0 1.07,0 1.12,-0.96 v -35.2 c 0,0 19.51,0 19.51,0 0.28,0 0.94,0 0.94,-0.57 v -9.05 L 523.5,153.59 c 0,0 -7.53,0 -7.53,0 z m 15.47,86.01 h -15.68 c -1.98,0 -4.93,-1.41 -4.93,-5.3 v -79.96 c 0,-2.06 1.37,-5.14 5.14,-5.14 h 9.59 l 31.83,38.66 v 10.62 c 0,1.99 -1.42,4.95 -5.32,4.95 h -15.13 v 30.86 c 0,2.13 -1.46,5.3 -5.5,5.3"
       id="path20" />
    <path
       class="b"
       d="m 107.76,186.78 c -0.45,0 -0.76,0.28 -0.76,0.54 v 47.8 c 0,0.25 0.31,0.54 0.76,0.54 h 17.95 c 0.45,0 0.77,-0.28 0.77,-0.54 v -47.8 c 0,-0.25 -0.31,-0.54 -0.77,-0.54 0,0 -17.95,0 -17.95,0 z m 17.95,53.14 h -17.95 c -2.77,0 -5.02,-2.15 -5.02,-4.79 v -47.8 c 0,-2.64 2.25,-4.8 5.02,-4.8 h 17.95 c 2.77,0 5.02,2.15 5.02,4.8 v 47.8 c 0,2.64 -2.25,4.79 -5.02,4.79"
       id="path22" />
    <path
       class="c"
       d="m 107.76,186.78 c -0.45,0 -0.76,0.28 -0.76,0.54 v 47.8 c 0,0.25 0.31,0.54 0.76,0.54 h 17.95 c 0.45,0 0.77,-0.28 0.77,-0.54 v -47.8 c 0,-0.25 -0.31,-0.54 -0.77,-0.54 0,0 -17.95,0 -17.95,0 z m 17.95,53.14 h -17.95 c -2.77,0 -5.02,-2.15 -5.02,-4.79 v -47.8 c 0,-2.64 2.25,-4.8 5.02,-4.8 h 17.95 c 2.77,0 5.02,2.15 5.02,4.8 v 47.8 c 0,2.64 -2.25,4.79 -5.02,4.79"
       id="path24" />
    <path
       class="b"
       d="m 173.82,235.23 h 20.97 l -29.26,-31.04 h 5.08 c 18.06,0 23.49,-12.02 25.01,-17.35 h -52.51 c -0.87,0 -1.31,0.31 -1.31,0.91 v 13.87 z m 26.15,4.39 h -28.03 l -34.52,-36.24 v -15.62 c 0,-2.13 1.52,-5.3 5.69,-5.3 h 57.71 l -0.31,2.46 c -0.03,0.22 -2.86,20.76 -25.09,23.37 l 24.55,26.04 c 0,0 0,5.28 0,5.28 z"
       id="path26" />
    <path
       class="c"
       d="m 173.82,235.23 h 20.97 l -29.26,-31.04 h 5.08 c 18.06,0 23.49,-12.02 25.01,-17.35 h -52.51 c -0.87,0 -1.31,0.31 -1.31,0.91 v 13.87 z m 26.15,4.39 h -28.03 l -34.52,-36.24 v -15.62 c 0,-2.13 1.52,-5.3 5.69,-5.3 h 57.71 l -0.31,2.46 c -0.03,0.22 -2.86,20.76 -25.09,23.37 l 24.55,26.04 c 0,0 0,5.28 0,5.28 z"
       id="path28" />
    <path
       class="b"
       d="m 9.45,153.61 c -0.95,0 -1.73,0.78 -1.73,1.74 v 12.95 c 0,0.96 0.77,1.74 1.73,1.74 h 26.68 c 0.95,0 1.73,-0.78 1.73,-1.74 v -12.95 c 0,-0.96 -0.77,-1.74 -1.73,-1.74 0,0 -26.68,0 -26.68,0 z m 26.67,20.82 H 9.45 c -3.37,0 -6.11,-2.75 -6.11,-6.12 v -12.95 c 0,-3.38 2.74,-6.12 6.11,-6.12 h 26.68 c 3.37,0 6.11,2.75 6.11,6.12 v 12.95 c 0,3.38 -2.74,6.12 -6.11,6.12"
       id="path30" />
    <path
       class="c"
       d="m 9.45,153.61 c -0.95,0 -1.73,0.78 -1.73,1.74 v 12.95 c 0,0.96 0.77,1.74 1.73,1.74 h 26.68 c 0.95,0 1.73,-0.78 1.73,-1.74 v -12.95 c 0,-0.96 -0.77,-1.74 -1.73,-1.74 0,0 -26.68,0 -26.68,0 z m 26.67,20.82 H 9.45 c -3.37,0 -6.11,-2.75 -6.11,-6.12 v -12.95 c 0,-3.38 2.74,-6.12 6.11,-6.12 h 26.68 c 3.37,0 6.11,2.75 6.11,6.12 v 12.95 c 0,3.38 -2.74,6.12 -6.11,6.12"
       id="path32" />
    <path
       class="b"
       d="m 67.25,153.55 c -18.29,0 -18.5,17.92 -18.5,18.69 v 62.52 c 0,0.25 0.31,0.54 0.76,0.54 h 15.57 c 0.45,0 0.77,-0.28 0.77,-0.54 v -56.68 c 0,-5.85 4.33,-7.97 7.24,-7.97 h 123 c -0.72,-6.54 -4.88,-11.28 -12.37,-14.09 -6.5,-2.44 -13.05,-2.47 -13.12,-2.47 0,0 -103.35,0 -103.35,0 z m -2.17,86 H 49.51 c -2.77,0 -5.02,-2.15 -5.02,-4.79 v -62.52 c 0,-0.23 0.26,-22.95 22.76,-22.95 H 170.6 c 0.3,0 7.4,0.03 14.61,2.74 9.97,3.74 15.25,10.73 15.25,20.21 v 2.13 H 73.09 c -0.88,0.02 -2.98,0.44 -2.98,3.71 v 56.68 c 0,2.64 -2.26,4.79 -5.03,4.79"
       id="path34" />
    <path
       class="c"
       d="m 67.25,153.55 c -18.29,0 -18.5,17.92 -18.5,18.69 v 62.52 c 0,0.25 0.31,0.54 0.76,0.54 h 15.57 c 0.45,0 0.77,-0.28 0.77,-0.54 v -56.68 c 0,-5.85 4.33,-7.97 7.24,-7.97 h 123 c -0.72,-6.54 -4.88,-11.28 -12.37,-14.09 -6.5,-2.44 -13.05,-2.47 -13.12,-2.47 0,0 -103.35,0 -103.35,0 z m -2.17,86 H 49.51 c -2.77,0 -5.02,-2.15 -5.02,-4.79 v -62.52 c 0,-0.23 0.26,-22.95 22.76,-22.95 H 170.6 c 0.3,0 7.4,0.03 14.61,2.74 9.97,3.74 15.25,10.73 15.25,20.21 v 2.13 H 73.09 c -0.88,0.02 -2.98,0.44 -2.98,3.71 v 56.68 c 0,2.64 -2.26,4.79 -5.03,4.79"
       id="path36" />
    <path
       class="b"
       d="m 214.25,194.42 v 40.37 c 0,0.25 0.31,0.54 0.76,0.54 h 15.57 c 0.45,0 0.77,-0.28 0.77,-0.54 v -40.37 c 0,0 0,0 0,0 v -40.37 c 0,-0.25 -0.31,-0.54 -0.76,-0.54 h -15.57 c -0.45,0 -0.77,0.28 -0.77,0.54 v 40.37 c 0,0 0,0 0,0 z m 16.34,45.16 h -15.57 c -2.77,0 -5.02,-2.15 -5.02,-4.79 0,0 0,-40.37 0,-40.37 v -40.37 c 0,-2.64 2.26,-4.79 5.03,-4.79 m -0.01,0 h 15.57 c 2.77,0 5.02,2.15 5.02,4.79 v 40.37 c 0,0 0,0 0,0 v 40.37 c 0,2.64 -2.26,4.79 -5.03,4.79"
       id="path38" />
    <path
       class="c"
       d="m 214.25,194.42 v 40.37 c 0,0.25 0.31,0.54 0.76,0.54 h 15.57 c 0.45,0 0.77,-0.28 0.77,-0.54 v -40.37 c 0,0 0,-2.58 0,-2.58 v -37.79 c 0,-0.25 -0.31,-0.54 -0.76,-0.54 h -15.57 c -0.45,0 -0.77,0.28 -0.77,0.54 v 37.79 c 0,0 0,2.58 0,2.58 z m 16.34,45.16 h -15.57 c -2.77,0 -5.02,-2.15 -5.02,-4.79 v -42.94 c 0,0 0,-37.79 0,-37.79 0,-2.64 2.25,-4.79 5.02,-4.79 m 0,-0.01 h 15.57 c 2.77,0 5.02,2.15 5.02,4.79 v 37.79 c 0,0 0,2.58 0,2.58 v 40.37 c 0,2.64 -2.26,4.79 -5.03,4.79"
       id="path40" />
    <path
       class="b"
       d="m 250.13,186.88 c -0.45,0 -0.76,0.28 -0.76,0.54 v 47.8 c 0,0.25 0.31,0.54 0.76,0.54 h 17.95 c 0.45,0 0.77,-0.28 0.77,-0.54 v -47.8 c 0,-0.25 -0.31,-0.54 -0.77,-0.54 0,0 -17.95,0 -17.95,0 z m 17.95,53.13 h -17.95 c -2.77,0 -5.02,-2.15 -5.02,-4.79 v -47.8 c 0,-2.64 2.25,-4.8 5.02,-4.8 h 17.95 c 2.77,0 5.02,2.15 5.02,4.8 v 47.8 c 0,2.64 -2.25,4.79 -5.02,4.79"
       id="path42" />
    <path
       class="b"
       d="m 307.89,204.28 h 5.08 c 18.06,0 23.49,-12.02 25.01,-17.35 h -50.97 c -0.87,0 -1.31,0.31 -1.31,0.91 v 16.43 h 22.19 z m -26.57,4.11 v -20.54 c 0,-2.13 1.52,-5.3 5.69,-5.3 h 56.17 l -0.31,2.46 c -0.03,0.21 -2.66,19.31 -22.77,23.03 -1.34,0.25 -2.7,0.35 -4.06,0.35 h -34.73 z"
       id="path44" />
    <path
       class="b"
       d="m 250.71,170.2 h 87.74 c -0.72,-6.54 -4.88,-11.28 -12.37,-14.09 -6.5,-2.44 -13.05,-2.47 -13.12,-2.47 H 250.7 c -0.75,0 -1.35,0.6 -1.35,1.35 v 13.85 c 0,0.75 0.6,1.35 1.35,1.35 z m -5.61,-16.63 c 0,-2.31 1.88,-4.19 4.19,-4.19 h 63.68 c 0.3,0 7.4,0.03 14.61,2.74 9.97,3.74 15.25,10.73 15.25,20.21 v 2.13 h -93.54 c -2.31,0 -4.19,-1.88 -4.19,-4.19 z"
       id="path46" />
    <path
       class="c"
       d="m 250.13,186.88 c -0.45,0 -0.76,0.28 -0.76,0.54 v 47.8 c 0,0.25 0.31,0.54 0.76,0.54 h 17.95 c 0.45,0 0.77,-0.28 0.77,-0.54 v -47.8 c 0,-0.25 -0.31,-0.54 -0.77,-0.54 0,0 -17.95,0 -17.95,0 z m 17.95,53.13 h -17.95 c -2.77,0 -5.02,-2.15 -5.02,-4.79 v -47.8 c 0,-2.64 2.25,-4.8 5.02,-4.8 h 17.95 c 2.77,0 5.02,2.15 5.02,4.8 v 47.8 c 0,2.64 -2.25,4.79 -5.02,4.79"
       id="path48" />
    <path
       class="c"
       d="m 307.89,204.28 h 5.08 c 18.06,0 23.49,-12.02 25.01,-17.35 h -50.97 c -0.87,0 -1.31,0.31 -1.31,0.91 v 16.43 h 22.19 z m -26.57,4.11 v -20.54 c 0,-2.13 1.52,-5.3 5.69,-5.3 h 56.17 l -0.31,2.46 c -0.03,0.21 -2.66,19.31 -22.77,23.03 -1.34,0.25 -2.7,0.35 -4.06,0.35 h -34.73 z"
       id="path50" />
    <path
       class="c"
       d="m 250.71,170.2 h 87.74 c -0.72,-6.54 -4.88,-11.28 -12.37,-14.09 -6.5,-2.44 -13.05,-2.47 -13.12,-2.47 H 250.7 c -0.75,0 -1.35,0.6 -1.35,1.35 v 13.85 c 0,0.75 0.6,1.35 1.35,1.35 z m -5.61,-16.63 c 0,-2.31 1.88,-4.19 4.19,-4.19 h 63.68 c 0.3,0 7.4,0.03 14.61,2.74 9.97,3.74 15.25,10.73 15.25,20.21 v 2.13 h -93.54 c -2.31,0 -4.19,-1.88 -4.19,-4.19 z"
       id="path52" />
    <path
       class="b"
       d="m 409.91,235.16 c 0.95,0 1.73,-0.78 1.73,-1.74 v -12.95 c 0,-0.96 -0.77,-1.74 -1.73,-1.74 h -26.68 c -0.95,0 -1.73,0.78 -1.73,1.74 v 12.95 c 0,0.96 0.77,1.74 1.73,1.74 0,0 26.68,0 26.68,0 z m -26.68,-20.82 h 26.68 c 3.37,0 6.11,2.75 6.11,6.12 v 12.95 c 0,3.38 -2.74,6.12 -6.11,6.12 h -26.68 c -3.37,0 -6.11,-2.75 -6.11,-6.12 v -12.95 c 0,-3.38 2.74,-6.12 6.11,-6.12"
       id="path54" />
    <path
       class="b"
       d="m 352.13,239.63 c 22.5,0 22.74,-22.87 22.74,-23.1 v -62.52 c 0,-2.64 -2.25,-4.79 -5.02,-4.79 h -15.57 c -2.77,0 -5.02,2.15 -5.02,4.79 v 85.62 c 0,0 2.88,0 2.88,0 z m 1.38,-85.95 c 0,0.08 0.31,-0.21 0.77,-0.21 h 15.57 c 0.45,0 0.76,0.28 0.76,0.54 v 62.52 c 0,0.74 -0.2,17.76 -17.1,18.65 v -0.33 c 0,0 0,-81.17 0,-81.17 z"
       id="path56" />
    <path
       class="c"
       d="m 409.91,235.16 c 0.95,0 1.73,-0.78 1.73,-1.74 v -12.95 c 0,-0.96 -0.77,-1.74 -1.73,-1.74 h -26.68 c -0.95,0 -1.73,0.78 -1.73,1.74 v 12.95 c 0,0.96 0.77,1.74 1.73,1.74 0,0 26.68,0 26.68,0 z m -26.68,-20.82 h 26.68 c 3.37,0 6.11,2.75 6.11,6.12 v 12.95 c 0,3.38 -2.74,6.12 -6.11,6.12 h -26.68 c -3.37,0 -6.11,-2.75 -6.11,-6.12 v -12.95 c 0,-3.38 2.74,-6.12 6.11,-6.12"
       id="path58" />
    <path
       class="c"
       d="m 353.51,239.63 c 21.11,-0.92 21.36,-22.69 21.36,-22.92 v -62.52 c 0,-2.64 -2.25,-4.79 -5.02,-4.79 h -15.57 c -2.77,0 -5.02,2.15 -5.02,4.79 v 85.44 c 0,0 4.26,0 4.26,0 z m 0,-85.44 c 0,-0.25 0.31,-0.54 0.77,-0.54 h 15.57 c 0.45,0 0.76,0.28 0.76,0.54 v 62.52 c 0,0.74 -0.2,17.76 -17.1,18.65 v 0 z"
       id="path60" />
  </g>
</svg>
