{
	"asset":{
		"generator":"Khronos glTF Blender I/O v4.1.63",
		"version":"2.0"
	},
	"extensionsUsed":[
		"KHR_materials_transmission",
		"KHR_materials_emissive_strength",
		"KHR_materials_ior"
	],
	"scene":0,
	"scenes":[
		{
			"name":"Scene",
			"nodes":[
				0,
				1,
				2,
				3,
				4,
				5,
				6
			]
		}
	],
	"nodes":[
		{
			"mesh":0,
			"name":"Guard_Barrier",
			"translation":[
				-172.0500030517578,
				0.2666666507720947,
				0
			]
		},
		{
			"mesh":1,
			"name":"Tribunes",
			"translation":[
				-172.0500030517578,
				0.2666666507720947,
				0
			]
		},
		{
			"mesh":2,
			"name":"Stages.001",
			"translation":[
				-172.0500030517578,
				0.2666666507720947,
				0
			]
		},
		{
			"mesh":3,
			"name":"ROOF",
			"translation":[
				-172.0500030517578,
				0.2666666507720947,
				0
			]
		},
		{
			"mesh":4,
			"name":"Light1",
			"rotation":[
				0,
				0,
				0.21643958985805511,
				0.9762960076332092
			],
			"translation":[
				0,
				-4,
				-53
			]
		},
		{
			"mesh":5,
			"name":"OneBLOCK.001",
			"translation":[
				-2.0500001907348633,
				-0.13415801525115967,
				0
			]
		},
		{
			"mesh":6,
			"name":"Ground.001",
			"translation":[
				0,
				-0.19412729144096375,
				0
			]
		}
	],
	"materials":[
		{
			"doubleSided":true,
			"emissiveFactor":[
				0.4205702403410472,
				1,
				0.944041291303706
			],
			"extensions":{
				"KHR_materials_transmission":{
					"transmissionFactor":1
				},
				"KHR_materials_emissive_strength":{
					"emissiveStrength":1.120269780154402
				},
				"KHR_materials_ior":{
					"ior":1.2999999523162842
				}
			},
			"name":"GlassBarrier",
			"pbrMetallicRoughness":{
				"baseColorFactor":[
					0.12771713733673096,
					0.5823293924331665,
					0.8009555339813232,
					1
				],
				"metallicFactor":0,
				"roughnessFactor":0.04090908169746399
			}
		},
		{
			"doubleSided":true,
			"name":"Emmit_metalic",
			"pbrMetallicRoughness":{
				"baseColorFactor":[
					0.14619120955467224,
					0.14619120955467224,
					0.14619120955467224,
					1
				],
				"metallicFactor":0,
				"roughnessFactor":0.5
			}
		},
		{
			"doubleSided":true,
			"name":"Dark",
			"pbrMetallicRoughness":{
				"baseColorFactor":[
					0.1461915224790573,
					0.1461915224790573,
					0.1461915224790573,
					1
				],
				"metallicFactor":0,
				"roughnessFactor":0.5
			}
		},
		{
			"doubleSided":true,
			"emissiveFactor":[
				0.3590550124645233,
				1,
				0.8392819762229919
			],
			"extensions":{
				"KHR_materials_emissive_strength":{
					"emissiveStrength":100
				}
			},
			"name":"Emmit",
			"pbrMetallicRoughness":{
				"baseColorFactor":[
					0.3590550124645233,
					1,
					0.8392819762229919,
					1
				],
				"metallicFactor":0,
				"roughnessFactor":0.5
			}
		},
		{
			"doubleSided":true,
			"emissiveFactor":[
				1,
				1,
				1
			],
			"emissiveTexture":{
				"index":0
			},
			"extensions":{
				"KHR_materials_emissive_strength":{
					"emissiveStrength":11
				}
			},
			"name":"Edges_UV_TEXTURE",
			"pbrMetallicRoughness":{
				"baseColorTexture":{
					"index":1
				},
				"metallicFactor":0,
				"roughnessFactor":0.5
			}
		},
		{
			"doubleSided":true,
			"emissiveFactor":[
				0.04479309983243196,
				0.10000000149011612,
				0.08899539841704662
			],
			"name":"GroundV2",
			"pbrMetallicRoughness":{
				"baseColorFactor":[
					0,
					0,
					0,
					1
				]
			}
		}
	],
	"meshes":[
		{
			"name":"Vert.003",
			"primitives":[
				{
					"attributes":{
						"POSITION":0,
						"NORMAL":1
					},
					"indices":2,
					"material":0
				}
			]
		},
		{
			"name":"Vert.004",
			"primitives":[
				{
					"attributes":{
						"POSITION":3,
						"NORMAL":4
					},
					"indices":5,
					"material":1
				}
			]
		},
		{
			"name":"Vert.007",
			"primitives":[
				{
					"attributes":{
						"POSITION":6,
						"NORMAL":7
					},
					"indices":8,
					"material":2
				}
			]
		},
		{
			"name":"Vert.008",
			"primitives":[
				{
					"attributes":{
						"POSITION":9,
						"NORMAL":10
					},
					"indices":11,
					"material":1
				}
			]
		},
		{
			"name":"Cube.001",
			"primitives":[
				{
					"attributes":{
						"POSITION":12,
						"NORMAL":13,
						"TEXCOORD_0":14,
						"TANGENT":15
					},
					"indices":16,
					"material":3
				},
				{
					"attributes":{
						"POSITION":17,
						"NORMAL":18,
						"TEXCOORD_0":19,
						"TANGENT":20
					},
					"indices":21
				}
			]
		},
		{
			"name":"Plane.011",
			"primitives":[
				{
					"attributes":{
						"POSITION":22,
						"NORMAL":23,
						"TEXCOORD_0":24
					},
					"indices":25,
					"material":4
				}
			]
		},
		{
			"name":"Plane.012",
			"primitives":[
				{
					"attributes":{
						"POSITION":26,
						"NORMAL":27,
						"TEXCOORD_0":28
					},
					"indices":29,
					"material":5
				}
			]
		}
	],
	"textures":[
		{
			"sampler":0,
			"source":0
		},
		{
			"sampler":0,
			"source":0
		}
	],
	"images":[
		{
			"mimeType":"image/png",
			"name":"Edge_square",
			"uri":"Edge_square.png"
		}
	],
	"accessors":[
		{
			"bufferView":0,
			"componentType":5126,
			"count":640,
			"max":[
				982.7935791015625,
				5.974344730377197,
				373.1759948730469
			],
			"min":[
				-581.6445922851562,
				0,
				-258.722412109375
			],
			"type":"VEC3"
		},
		{
			"bufferView":1,
			"componentType":5126,
			"count":640,
			"type":"VEC3"
		},
		{
			"bufferView":2,
			"componentType":5123,
			"count":3840,
			"type":"SCALAR"
		},
		{
			"bufferView":3,
			"componentType":5126,
			"count":256,
			"max":[
				991.04931640625,
				75,
				379.9642028808594
			],
			"min":[
				-589.9691772460938,
				55,
				-265.35455322265625
			],
			"type":"VEC3"
		},
		{
			"bufferView":4,
			"componentType":5126,
			"count":256,
			"type":"VEC3"
		},
		{
			"bufferView":5,
			"componentType":5123,
			"count":1536,
			"type":"SCALAR"
		},
		{
			"bufferView":6,
			"componentType":5126,
			"count":614,
			"max":[
				1073.4698486328125,
				70,
				462.61590576171875
			],
			"min":[
				-672.6671752929688,
				0,
				-347.9722595214844
			],
			"type":"VEC3"
		},
		{
			"bufferView":7,
			"componentType":5126,
			"count":614,
			"type":"VEC3"
		},
		{
			"bufferView":8,
			"componentType":5123,
			"count":1704,
			"type":"SCALAR"
		},
		{
			"bufferView":9,
			"componentType":5126,
			"count":384,
			"max":[
				1251.4886474609375,
				75,
				621.9589233398438
			],
			"min":[
				-850.3836669921875,
				-2.250849723815918,
				-507.35308837890625
			],
			"type":"VEC3"
		},
		{
			"bufferView":10,
			"componentType":5126,
			"count":384,
			"type":"VEC3"
		},
		{
			"bufferView":11,
			"componentType":5123,
			"count":2304,
			"type":"SCALAR"
		},
		{
			"bufferView":12,
			"componentType":5126,
			"count":92,
			"max":[
				742.6258544921875,
				393.32586669921875,
				421.7926940917969
			],
			"min":[
				-647.1415405273438,
				-259.03533935546875,
				-201.20321655273438
			],
			"type":"VEC3"
		},
		{
			"bufferView":13,
			"componentType":5126,
			"count":92,
			"type":"VEC3"
		},
		{
			"bufferView":14,
			"componentType":5126,
			"count":92,
			"type":"VEC2"
		},
		{
			"bufferView":15,
			"componentType":5126,
			"count":92,
			"type":"VEC4"
		},
		{
			"bufferView":16,
			"componentType":5123,
			"count":138,
			"type":"SCALAR"
		},
		{
			"bufferView":17,
			"componentType":5126,
			"count":1188,
			"max":[
				749.36083984375,
				398.280029296875,
				428.03546142578125
			],
			"min":[
				-651.01904296875,
				-260.60284423828125,
				-207.46560668945312
			],
			"type":"VEC3"
		},
		{
			"bufferView":18,
			"componentType":5126,
			"count":1188,
			"type":"VEC3"
		},
		{
			"bufferView":19,
			"componentType":5126,
			"count":1188,
			"type":"VEC2"
		},
		{
			"bufferView":20,
			"componentType":5126,
			"count":1188,
			"type":"VEC4"
		},
		{
			"bufferView":21,
			"componentType":5123,
			"count":1794,
			"type":"SCALAR"
		},
		{
			"bufferView":22,
			"componentType":5126,
			"count":55200,
			"max":[
				851.3643798828125,
				0.03500000014901161,
				397.29998779296875
			],
			"min":[
				-814.8998413085938,
				-0.03500000014901161,
				-432.8887939453125
			],
			"type":"VEC3"
		},
		{
			"bufferView":23,
			"componentType":5126,
			"count":55200,
			"type":"VEC3"
		},
		{
			"bufferView":24,
			"componentType":5126,
			"count":55200,
			"type":"VEC2"
		},
		{
			"bufferView":25,
			"componentType":5123,
			"count":317400,
			"type":"SCALAR"
		},
		{
			"bufferView":26,
			"componentType":5126,
			"count":16232,
			"max":[
				900,
				0.10000000149011612,
				860
			],
			"min":[
				-860,
				-0.10000000149011612,
				-900
			],
			"type":"VEC3"
		},
		{
			"bufferView":27,
			"componentType":5126,
			"count":16232,
			"type":"VEC3"
		},
		{
			"bufferView":28,
			"componentType":5126,
			"count":16232,
			"type":"VEC2"
		},
		{
			"bufferView":29,
			"componentType":5123,
			"count":24372,
			"type":"SCALAR"
		}
	],
	"bufferViews":[
		{
			"buffer":0,
			"byteLength":7680,
			"byteOffset":0,
			"target":34962
		},
		{
			"buffer":0,
			"byteLength":7680,
			"byteOffset":7680,
			"target":34962
		},
		{
			"buffer":0,
			"byteLength":7680,
			"byteOffset":15360,
			"target":34963
		},
		{
			"buffer":0,
			"byteLength":3072,
			"byteOffset":23040,
			"target":34962
		},
		{
			"buffer":0,
			"byteLength":3072,
			"byteOffset":26112,
			"target":34962
		},
		{
			"buffer":0,
			"byteLength":3072,
			"byteOffset":29184,
			"target":34963
		},
		{
			"buffer":0,
			"byteLength":7368,
			"byteOffset":32256,
			"target":34962
		},
		{
			"buffer":0,
			"byteLength":7368,
			"byteOffset":39624,
			"target":34962
		},
		{
			"buffer":0,
			"byteLength":3408,
			"byteOffset":46992,
			"target":34963
		},
		{
			"buffer":0,
			"byteLength":4608,
			"byteOffset":50400,
			"target":34962
		},
		{
			"buffer":0,
			"byteLength":4608,
			"byteOffset":55008,
			"target":34962
		},
		{
			"buffer":0,
			"byteLength":4608,
			"byteOffset":59616,
			"target":34963
		},
		{
			"buffer":0,
			"byteLength":1104,
			"byteOffset":64224,
			"target":34962
		},
		{
			"buffer":0,
			"byteLength":1104,
			"byteOffset":65328,
			"target":34962
		},
		{
			"buffer":0,
			"byteLength":736,
			"byteOffset":66432,
			"target":34962
		},
		{
			"buffer":0,
			"byteLength":1472,
			"byteOffset":67168,
			"target":34962
		},
		{
			"buffer":0,
			"byteLength":276,
			"byteOffset":68640,
			"target":34963
		},
		{
			"buffer":0,
			"byteLength":14256,
			"byteOffset":68916,
			"target":34962
		},
		{
			"buffer":0,
			"byteLength":14256,
			"byteOffset":83172,
			"target":34962
		},
		{
			"buffer":0,
			"byteLength":9504,
			"byteOffset":97428,
			"target":34962
		},
		{
			"buffer":0,
			"byteLength":19008,
			"byteOffset":106932,
			"target":34962
		},
		{
			"buffer":0,
			"byteLength":3588,
			"byteOffset":125940,
			"target":34963
		},
		{
			"buffer":0,
			"byteLength":662400,
			"byteOffset":129528,
			"target":34962
		},
		{
			"buffer":0,
			"byteLength":662400,
			"byteOffset":791928,
			"target":34962
		},
		{
			"buffer":0,
			"byteLength":441600,
			"byteOffset":1454328,
			"target":34962
		},
		{
			"buffer":0,
			"byteLength":634800,
			"byteOffset":1895928,
			"target":34963
		},
		{
			"buffer":0,
			"byteLength":194784,
			"byteOffset":2530728,
			"target":34962
		},
		{
			"buffer":0,
			"byteLength":194784,
			"byteOffset":2725512,
			"target":34962
		},
		{
			"buffer":0,
			"byteLength":129856,
			"byteOffset":2920296,
			"target":34962
		},
		{
			"buffer":0,
			"byteLength":48744,
			"byteOffset":3050152,
			"target":34963
		}
	],
	"samplers":[
		{
			"magFilter":9729,
			"minFilter":9987
		}
	],
	"buffers":[
		{
			"byteLength":3098896,
			"uri":"Trong_legacy_bike%5BAll%5D.bin"
		}
	]
}
